<?xml version="1.0" encoding="utf-8"?>
<!-- Svg Vector Icons : http://www.onlinewebfonts.com/icon -->
<!DOCTYPE svg PUBLIC "-//W3C//DTD SVG 1.1//EN" "http://www.w3.org/Graphics/SVG/1.1/DTD/svg11.dtd">
<svg version="1.1" xmlns="http://www.w3.org/2000/svg" xmlns:xlink="http://www.w3.org/1999/xlink" x="0px" y="0px" viewBox="0 0 256 256" enable-background="new 0 0 256 256" xml:space="preserve">
<metadata> Svg Vector Icons : http://www.onlinewebfonts.com/icon </metadata>
<g><g><path fill="#000000" d="M10,36.2v183.6c0,14.5,11.7,26.2,26.2,26.2h183.6c14.5,0,26.2-11.7,26.2-26.2V36.2c0-14.5-11.7-26.2-26.2-26.2H36.2C21.7,10,10,21.7,10,36.2z M167.3,88.7c0,21.7-17.6,39.3-39.3,39.3s-39.3-17.6-39.3-39.3c0-21.7,17.6-39.3,39.3-39.3S167.3,67,167.3,88.7z M49.3,193.6c0-26.2,52.4-40.7,78.7-40.7c26.2,0,78.7,14.4,78.7,40.7v13.1H49.3V193.6z"/></g></g>
</svg>